<svg width="80" height="80" fill="none" xmlns="http://www.w3.org/2000/svg"><g clip-path="url(#clip0)"><path fill="#fff" d="M0 0h80v80H0z"/><path d="M25.333 50.667h-16A9.344 9.344 0 0 0 0 60v20h34.667V60a9.344 9.344 0 0 0-9.334-9.333zm-5.159 2.666l-2.84 4.267-2.842-4.267h5.682zm11.826 24h-5.333V62.667H24v14.666H10.667V62.667H8v14.666H2.667V60a6.675 6.675 0 0 1 6.666-6.667h1.954l6.046 9.067 6.047-9.067h1.953A6.675 6.675 0 0 1 32 60v17.333zM8 36v4a9.333 9.333 0 0 0 9.333 9.333A9.333 9.333 0 0 0 26.667 40V26.667a4 4 0 0 0-4-4H0V28a8.008 8.008 0 0 0 8 8zm16 4a6.667 6.667 0 0 1-13.333 0v-4H24v4zM2.667 25.333h20c.736 0 1.333.597 1.333 1.334v6.666H8A5.334 5.334 0 0 1 2.667 28v-2.667z" fill="#4054B2"/><path d="M77.333 40V4a4 4 0 0 0-4-4H22.667a4 4 0 0 0-4 4v16h2.666V4c0-.736.597-1.333 1.334-1.333h50.666c.737 0 1.334.597 1.334 1.333v36H29.332v2.667h48v2.666H26.667V48H80v-8h-2.667zm-24.6 29.408a5.333 5.333 0 1 0-6.8 0A6.652 6.652 0 0 0 40 76v4h18.667v-4a6.652 6.652 0 0 0-5.934-6.592zm-3.4-6.741a2.667 2.667 0 1 1 0 5.333 2.667 2.667 0 0 1 0-5.333zM56 77.333H42.667V76a4 4 0 0 1 4-4H52a4 4 0 0 1 4 4v1.333zm18.067-7.925a5.333 5.333 0 1 0-6.8 0A6.652 6.652 0 0 0 61.334 76v4H80v-4a6.652 6.652 0 0 0-5.933-6.592zm-3.4-6.741a2.667 2.667 0 1 1 0 5.333 2.667 2.667 0 0 1 0-5.333zm6.666 14.666H64V76a4 4 0 0 1 4-4h5.334a4 4 0 0 1 4 4v1.333z" fill="#4054B2"/><path d="M34.981 12l-4.266 15.65 2.573.7 1.548-5.683h4.995l1.55 5.684 2.572-.702L39.686 12H34.98zm.583 8l1.455-5.333h.629L39.103 20h-3.54zm17.103-8h-6v16h6a4.66 4.66 0 0 0 3.255-8 4.66 4.66 0 0 0-3.256-8zm0 13.333h-3.334v-4h3.334a2 2 0 1 1 0 4zm0-6.666h-3.334v-4h3.334a2 2 0 1 1 0 4zm14-4h2.666V12h-2.666A6.675 6.675 0 0 0 60 18.667v2.666A6.675 6.675 0 0 0 66.667 28h2.666v-2.667h-2.666a4 4 0 0 1-4-4v-2.666a4 4 0 0 1 4-4zM36 33.333h2.667V36H36v-2.667zm6.667 0h2.666V36h-2.666v-2.667zm6.666 0H52V36h-2.667v-2.667zm6.667 0h2.667V36H56v-2.667zm6.667 0h2.666V36h-2.666v-2.667z" fill="#4054B2"/></g><defs><clipPath id="clip0"><path fill="#fff" d="M0 0h80v80H0z"/></clipPath></defs></svg>