<svg width="61" height="65" fill="none" xmlns="http://www.w3.org/2000/svg"><path d="M54.9 5.417V3.25C54.9 1.455 53.534 0 51.85 0h-2.033c-1.685 0-3.05 1.455-3.05 3.25v2.167h-5.084V3.25c0-1.795-1.365-3.25-3.05-3.25H36.6c-1.684 0-3.05 1.455-3.05 3.25v2.167h-6.1V3.25C27.45 1.455 26.084 0 24.4 0h-2.033c-1.685 0-3.05 1.455-3.05 3.25v2.167h-5.084V3.25c0-1.795-1.365-3.25-3.05-3.25H9.15C7.466 0 6.1 1.455 6.1 3.25v2.167H0V65h61V5.417h-6.1zM48.8 3.25c0-.598.455-1.083 1.017-1.083h2.033c.561 0 1.017.485 1.017 1.083v6.5c0 .598-.456 1.083-1.017 1.083h-2.033c-.562 0-1.017-.485-1.017-1.083v-6.5zm-13.217 0c0-.598.456-1.083 1.017-1.083h2.033c.562 0 1.017.485 1.017 1.083v6.5c0 .598-.455 1.083-1.017 1.083H36.6c-.562 0-1.017-.485-1.017-1.083v-6.5zm-14.233 0c0-.598.455-1.083 1.017-1.083H24.4c.562 0 1.017.485 1.017 1.083v6.5c0 .598-.456 1.083-1.017 1.083h-2.033c-.562 0-1.017-.485-1.017-1.083v-6.5zm-13.217 0c0-.598.456-1.083 1.017-1.083h2.033c.562 0 1.017.485 1.017 1.083v6.5c0 .598-.455 1.083-1.017 1.083H9.15c-.561 0-1.017-.485-1.017-1.083v-6.5zm50.834 59.583H2.033V19.5h56.934v43.333zm-56.934-45.5v-9.75H6.1V9.75C6.1 11.545 7.466 13 9.15 13h2.033c1.685 0 3.05-1.455 3.05-3.25V7.583h5.084V9.75c0 1.795 1.365 3.25 3.05 3.25H24.4c1.684 0 3.05-1.455 3.05-3.25V7.583h6.1V9.75c0 1.795 1.366 3.25 3.05 3.25h2.033c1.685 0 3.05-1.455 3.05-3.25V7.583h5.084V9.75c0 1.795 1.365 3.25 3.05 3.25h2.033c1.684 0 3.05-1.455 3.05-3.25V7.583h4.067v9.75H2.033z" fill="#4054B2"/></svg>