<svg width="45" height="45" fill="none" xmlns="http://www.w3.org/2000/svg"><path d="M42.621 17.712a3.063 3.063 0 0 0-3.547 2.287l-1.702 6.377a3.095 3.095 0 0 0-3.493.123c-.075.06-6.768 4.33-6.768 4.33a8.264 8.264 0 0 0-3.86 7.022v6.395c0 .416.336.754.75.754a.753.753 0 0 0 .751-.754V37.85a6.763 6.763 0 0 1 3.158-5.746s6.79-4.332 6.815-4.353a1.534 1.534 0 0 1 2.051.067c.57.573.588 1.496.04 2.09l-4.99 3.525a.757.757 0 0 0-.183 1.051.748.748 0 0 0 1.046.184l5.048-3.566a.775.775 0 0 0 .099-.084 3.027 3.027 0 0 0 .69-3.157l1.996-7.472a1.586 1.586 0 0 1 1.785-1.202 1.513 1.513 0 0 1 1.142 1.863L40.747 31.2a2.275 2.275 0 0 1-.583 1.015l-5.617 5.646a5.261 5.261 0 0 0-1.539 3.734v2.65c0 .417.336.755.75.755a.753.753 0 0 0 .751-.754v-2.651a3.76 3.76 0 0 1 1.1-2.668l5.617-5.645c.466-.468.8-1.051.971-1.691l2.702-10.147a3.027 3.027 0 0 0-2.278-3.732zM17.89 30.828s-6.638-4.224-6.686-4.265a3.088 3.088 0 0 0-3.574-.187L5.927 20a3.06 3.06 0 0 0-3.546-2.287 3.009 3.009 0 0 0-1.937 1.373 3.036 3.036 0 0 0-.343 2.357l2.701 10.149c.17.64.506 1.222.972 1.691l5.617 5.645a3.758 3.758 0 0 1 1.101 2.667v2.652c0 .416.336.754.75.754a.753.753 0 0 0 .751-.754v-2.652a5.259 5.259 0 0 0-1.539-3.733l-5.617-5.646a2.272 2.272 0 0 1-.583-1.015L1.552 21.05a1.513 1.513 0 0 1 1.143-1.861 1.577 1.577 0 0 1 1.784 1.2l1.996 7.473a3.03 3.03 0 0 0 .69 3.157c.032.03.065.059.1.084l5.048 3.563a.748.748 0 0 0 1.045-.184.757.757 0 0 0-.182-1.05l-4.99-3.526a1.514 1.514 0 0 1 .039-2.09 1.537 1.537 0 0 1 2.012-.101c.038.03 6.855 4.387 6.855 4.387a6.761 6.761 0 0 1 3.157 5.749v6.395c0 .416.336.754.75.754a.753.753 0 0 0 .751-.754V37.85a8.263 8.263 0 0 0-3.86-7.023z" fill="#4054B2"/><path d="M34.849 24.552a.755.755 0 0 0 .41-.673V11.303l6.763-2.558a.754.754 0 0 0 0-1.412L22.766.049a.747.747 0 0 0-.53 0L2.98 7.333a.754.754 0 0 0 0 1.412l3.785 1.433a.677.677 0 0 0-.025.124v7.543c0 .416.336.754.75.754.415 0 .75-.338.75-.754v-7.11l1.502.568v12.576c0 .285.159.545.411.673l.6.302a26.332 26.332 0 0 0 23.506 0l.59-.302zM22.5 1.56l17.126 6.48-17.125 6.479-17.126-6.48L22.501 1.56zm11.08 21.95a24.838 24.838 0 0 1-22.156 0l-.182-.094V11.871l10.993 4.158a.75.75 0 0 0 .53 0l10.993-4.158v11.545l-.177.095z" fill="#4054B2"/></svg>