<svg width="60" height="65" fill="none" xmlns="http://www.w3.org/2000/svg"><path d="M55 6.475c-2.76.003-4.997 2.417-5 5.395v42.34L55 65l5-10.79V11.87c-.003-2.978-2.24-5.392-5-5.395zM54 50.27l-1.155-1.248-.845 1.37V21.583h2V50.27zm-1.846 3.761l1-1.619L55 54.401l1.845-1.99 1 1.619L55 60.175l-2.846-6.143zM58 50.394l-.845-1.367L56 50.27V21.582h2v28.812zm0-30.97h-6v-2.159h6v2.159zm-6-4.317V11.87c0-1.788 1.343-3.237 3-3.237s3 1.45 3 3.237v3.237h-6zM40 0H0v58.27h6v6.476h40V6.475h-6V0zM2 56.113V2.158h36v4.317H6v49.638H2zm42 6.474H8V8.633h36v53.954z" fill="#4054B2"/><path d="M20 12.95h-8v8.632h8v-8.633zm-2 6.474h-4v-4.317h4v4.317zm2 5.396h-8v8.632h8v-8.633zm-2 6.474h-4v-4.317h4v4.317zm2 5.395h-8v8.633h8v-8.633zm-2 6.474h-4v-4.316h4v4.316zm2 6.475h-8v8.633h8v-8.633zm-2 6.475h-4v-4.317h4v4.317zm6-42.085h16v2.158H24v-2.158zm0 4.317h16v2.158H24v-2.159zm0 7.553h16v2.158H24v-2.158zm0 4.316h16v2.159H24v-2.159zm0 7.554h16v2.158H24v-2.158zm0 4.316h16v2.159H24v-2.159zm0 8.633h16v2.158H24v-2.158zm0 4.317h4v2.158h-4v-2.158zm10 0h2v2.158h-2v-2.158zm-4 0h2v2.158h-2v-2.158zm8 0h2v2.158h-2v-2.158z" fill="#4054B2"/></svg>