<svg width="50" height="47" fill="none" xmlns="http://www.w3.org/2000/svg"><path d="M36.573 18.37v3.358h-2.34a2.5 2.5 0 0 1-1.397-.42l-.995-.663L45.322 7.164a4.196 4.196 0 1 0-5.934-5.935L20.507 20.11v-.062h-4.914a7.589 7.589 0 0 0-6.042 3.021l-6.31 8.413a4.216 4.216 0 0 0 .39 5.485l.009.008-.672.671L0 46.552l8.905-2.968 1.785-1.786a2.512 2.512 0 0 0 2.386 1.749h12.036a4.168 4.168 0 0 0 2.967-1.23l1.391-1.389a2.53 2.53 0 0 1 1.78-.738h5.323v3.357H50V18.37H36.573zM14.699 35.418a5.898 5.898 0 0 0-3.88 3.878l-2.37 2.371-1.188-1.188L37.608 10.13l1.185 1.184-24.094 24.103zm5.93-3.558v2.457a.84.84 0 0 1-.84.839h-2.456l3.295-3.296zM40.575 2.416a2.518 2.518 0 1 1 3.56 3.56l-1.78 1.78-3.56-3.56 1.78-1.78zm.593 6.528l-1.186 1.186-3.56-3.56 1.185-1.187 3.561 3.56zm-4.747 0L6.074 39.29l-1.188-1.188L35.238 7.76l1.184 1.185zM4.818 35.78a2.531 2.531 0 0 1-.234-3.291l6.31-8.412a5.905 5.905 0 0 1 4.7-2.35h3.298L4.826 35.789l-.008-.008zm-.75 3.877l2.826 2.828-4.24 1.412 1.414-4.24zm27.182-1.146a4.17 4.17 0 0 0-2.967 1.23l-1.391 1.389a2.532 2.532 0 0 1-1.78.737H13.076a.84.84 0 0 1-.84-.839 4.201 4.201 0 0 1 4.196-4.196h3.357a2.518 2.518 0 0 0 2.518-2.517V30.18l8.324-8.328 1.273.85c.69.46 1.5.705 2.328.704h2.34v15.106H31.25zm17.072 3.356h-10.07V20.05h10.07v21.82z" fill="#4054B2"/></svg>