<svg width="80" height="85" fill="none" xmlns="http://www.w3.org/2000/svg"><g clip-path="url(#clip0)" fill="#4054B2"><path d="M70.628 52.48c5.155 0 9.334-4.409 9.334-9.849s-4.18-9.85-9.334-9.85h-56.4l-14 9.85 14 9.85h56.4zm-1.333-16.884h1.333c3.682 0 6.667 3.15 6.667 7.035 0 3.886-2.985 7.036-6.667 7.036h-1.333V35.595zm-5.333 0h2.666v14.07h-2.666v-14.07zm-46.116 14.07l2.667-2.814h40.782v2.815H17.846zm2.515-8.442h40.934v2.814H20.361l-2-1.407 2-1.407zm40.934-2.814H20.513l-2.667-2.814h43.449v2.814zM14.459 36l3.41 3.599-4.308 3.032 4.312 3.032-3.41 3.6-9.435-6.632L14.459 36z"/><path d="M39.11 7.472c-14.835.41-27.632 11.11-31.402 26.259l2.58.703a32.716 32.716 0 0 1 4.777-10.629 32.322 32.322 0 0 0 5.705 3.446 51.082 51.082 0 0 0-.994 3.929l2.604.6c.25-1.197.546-2.34.865-3.452a46.17 46.17 0 0 0 16.716 3.046 46.172 46.172 0 0 0 16.717-3.04c.317 1.105.611 2.241.86 3.427l2.603-.602a50.449 50.449 0 0 0-.987-3.9 32.43 32.43 0 0 0 5.712-3.454 32.859 32.859 0 0 1 4.045 8.146l2.518-.929C66.834 17.193 54.604 7.812 40.721 7.467l-1.61.005zm-.482 2.88V28.51a43.179 43.179 0 0 1-14.534-2.833c3.173-8.85 8.654-14.615 14.534-15.325zm2.667 0c5.921.752 11.374 6.504 14.533 15.317a43.17 43.17 0 0 1-14.533 2.841V10.352zm-12.192 1.996c-3.344 3.421-5.899 7.608-7.467 12.235a29.663 29.663 0 0 1-4.945-3.01c3.336-4.125 7.605-7.295 12.412-9.218v-.007zm34.133 9.226a29.724 29.724 0 0 1-4.946 3.01c-1.57-4.634-4.131-8.824-7.486-12.242 4.816 1.924 9.092 5.103 12.432 9.239v-.007zM40.812 77.79c13.849-.384 26.032-9.759 30.616-23.556l-2.519-.929a32.847 32.847 0 0 1-4.046 8.152 32.315 32.315 0 0 0-5.715-3.453 49.98 49.98 0 0 0 .99-3.904l-2.605-.603a47.764 47.764 0 0 1-.86 3.43 46.162 46.162 0 0 0-16.711-3.039 46.169 46.169 0 0 0-16.717 3.04 48.088 48.088 0 0 1-.866-3.46l-2.604.601c.282 1.361.625 2.674.996 3.94a32.316 32.316 0 0 0-5.706 3.446 32.724 32.724 0 0 1-4.8-10.726l-2.583.703c3.746 15.232 16.612 25.993 31.52 26.363l1.61-.005zm.483-2.88V56.76a43.182 43.182 0 0 1 14.533 2.834C52.656 68.436 47.174 74.2 41.295 74.91zm-2.667 0c-5.923-.751-11.375-6.504-14.534-15.317a43.173 43.173 0 0 1 14.534-2.841V74.91zm12.192-1.996c3.343-3.421 5.898-7.608 7.466-12.235a29.75 29.75 0 0 1 4.946 3.01c-3.337 4.125-7.606 7.295-12.412 9.218v.007zm-34.133-9.226a29.747 29.747 0 0 1 4.945-3.009c1.57 4.634 4.132 8.823 7.486 12.242-4.815-1.926-9.091-5.103-12.431-9.24v.007zm59.214-10.354l2.568.76c.124-.47.24-.938.351-1.408l-2.592-.667c-.101.44-.21.884-.327 1.315zM61.208 75.033l1.52 2.312a41.47 41.47 0 0 0 2.212-1.74l-1.667-2.197a39.055 39.055 0 0 1-2.065 1.625zm-9.171 4.887l.858 2.673c.865-.312 1.733-.66 2.58-1.037l-1.035-2.593c-.785.345-1.596.675-2.403.957zm22.127-21.47l2.443 1.126c.369-.885.713-1.797 1.021-2.709l-2.51-.949c-.29.856-.61 1.706-.954 2.532zM47.061 81.319l.505 2.763a38.21 38.21 0 0 0 2.692-.65l-.684-2.72c-.825.232-1.67.436-2.513.607zm9.722-3.509l1.2 2.512a37.986 37.986 0 0 0 2.418-1.407l-1.36-2.41c-.738.46-1.497.903-2.258 1.304zm8.447-6.174l1.804 2.07A41.737 41.737 0 0 0 69 71.66l-1.935-1.936c-.588.656-1.206 1.3-1.836 1.91zm6.542-8.369l2.266 1.474c.48-.823.94-1.674 1.366-2.532L73.041 60.9a36.7 36.7 0 0 1-1.269 2.366zm-2.999 4.421l2.058 1.791a42.184 42.184 0 0 0 1.682-2.31l-2.17-1.637a39.316 39.316 0 0 1-1.57 2.156zM20.812 79.7a36.4 36.4 0 0 0 2.47 1.309l1.111-2.557a36.76 36.76 0 0 1-2.303-1.221l-1.278 2.47zm10.307 4.11c.892.212 1.805.393 2.712.54l.4-2.78a37.2 37.2 0 0 1-2.534-.506l-.578 2.745zM16.16 76.562a41.075 41.075 0 0 0 2.274 1.654l1.438-2.377a35.884 35.884 0 0 1-2.123-1.548l-1.589 2.271zm-4.199-3.784c.656.68 1.342 1.34 2.036 1.97l1.733-2.14a41.832 41.832 0 0 1-1.9-1.829l-1.869 2zm24.613 11.926c.911.08 1.838.128 2.754.14l.042-2.814a32.554 32.554 0 0 1-2.575-.14l-.221 2.814zm5.376-2.729l.14 2.815c.914-.05 1.841-.141 2.75-.252l-.322-2.793a36.93 36.93 0 0 1-2.569.23zm-16.122.16c.859.341 1.733.655 2.619.934l.765-2.697a36.013 36.013 0 0 1-2.441-.87l-.943 2.633zM7.544 62.19L5.23 63.589c.457.844.944 1.671 1.455 2.476l2.21-1.566a44.926 44.926 0 0 1-1.35-2.31zM3.72 52.13l-2.588.676c.222.944.476 1.889.756 2.802l2.533-.865a44.653 44.653 0 0 1-.7-2.614zm6.688 14.577l-2.112 1.72a41.706 41.706 0 0 0 1.763 2.242l1.992-1.865a41.018 41.018 0 0 1-1.643-2.097zm-5.113-9.411L2.82 58.347c.347.91.723 1.806 1.116 2.664l2.4-1.229a49.203 49.203 0 0 1-1.041-2.486zm-2.314-9.222L.34 48.46c.062.48.133.96.21 1.436l2.628-.48a44.822 44.822 0 0 1-.197-1.342zm-.008-10.823L.33 36.872c-.06.478-.114.96-.162 1.444l2.655.28c.042-.449.093-.897.151-1.345zM48.739 1.438A38.576 38.576 0 0 0 46.029.9l-.4 2.782c.842.14 1.694.304 2.534.502l.576-2.746zm5.288 1.665a37.853 37.853 0 0 0-2.616-.93l-.763 2.697c.825.26 1.646.551 2.439.866l.94-2.633zM72.332 22.99l2.31-1.407c-.46-.844-.949-1.67-1.458-2.468l-2.213 1.565c.474.75.933 1.526 1.361 2.31zm2.255 4.879l2.47-1.056a44.61 44.61 0 0 0-1.12-2.657l-2.401 1.232c.379.814.73 1.648 1.05 2.48zm-5.125-9.389l2.106-1.723a41.927 41.927 0 0 0-1.767-2.239l-1.987 1.876a40.654 40.654 0 0 1 1.648 2.087zm-1.566-6.063a41.727 41.727 0 0 0-2.037-1.96L64.126 12.6a40.44 40.44 0 0 1 1.905 1.829l1.865-2.013zm-4.201-3.769A40.232 40.232 0 0 0 61.42 7l-1.43 2.374a36.97 36.97 0 0 1 2.12 1.538l1.585-2.264zm-4.651-3.127c-.8-.462-1.637-.9-2.47-1.301l-1.107 2.56c.776.375 1.55.783 2.3 1.213l1.277-2.472zM43.288.558a39.951 39.951 0 0 0-2.753-.14l-.04 2.814a36.09 36.09 0 0 1 2.571.129l.222-2.803zM14.676 13.644l-1.804-2.073a44.563 44.563 0 0 0-1.965 2.045l1.937 1.934a36.238 36.238 0 0 1 1.832-1.906zm-3.536 3.941l-2.057-1.788A42.482 42.482 0 0 0 7.4 18.105l2.17 1.638a44.193 44.193 0 0 1 1.569-2.158zm-2.996 4.422l-2.271-1.468c-.48.822-.933 1.673-1.365 2.533L6.87 24.38c.397-.809.825-1.604 1.274-2.372zm-4.124 9.93l-2.568-.763a45.216 45.216 0 0 0-.653 2.829l2.61.574c.175-.892.38-1.78.611-2.64zm1.735-5.119l-2.443-1.126c-.37.893-.713 1.803-1.02 2.708l2.51.948c.287-.847.608-1.697.953-2.53zM23.11 7.463l-1.2-2.509c-.818.438-1.63.91-2.415 1.407l1.368 2.416a36.523 36.523 0 0 1 2.248-1.314zm9.704-3.509L32.31 1.19a38.24 38.24 0 0 0-2.69.652l.689 2.72a34.24 34.24 0 0 1 2.506-.608zm-4.969 1.398l-.864-2.662c-.861.31-1.733.66-2.575 1.038l1.038 2.6c.79-.36 1.6-.686 2.401-.976zm-9.153 4.894l-1.519-2.312a40.19 40.19 0 0 0-2.211 1.741l1.666 2.197a36.145 36.145 0 0 1 2.064-1.626zm19.23-6.956L37.78.478a40.46 40.46 0 0 0-2.746.256l.326 2.793a36.862 36.862 0 0 1 2.563-.235zm37.934 28.474l2.565-.773c-.127-.469-.26-.935-.4-1.397l-2.533.875c.13.428.252.86.368 1.295z"/></g><defs><clipPath id="clip0"><path fill="#fff" d="M0 .417h80v84.427H0z"/></clipPath></defs></svg>