<svg width="45" height="45" fill="none" xmlns="http://www.w3.org/2000/svg"><path d="M42.692 36.012h-2.385c.085-.235.138-5.243.138-5.243a2.247 2.247 0 0 0-2.247-2.246H5.243a2.247 2.247 0 0 0-2.247 2.246v4.494c.003.256.049.51.138.75h-.887A2.247 2.247 0 0 0 0 38.258v4.494A2.247 2.247 0 0 0 2.247 45h40.445a2.247 2.247 0 0 0 2.247-2.247V38.26a2.247 2.247 0 0 0-2.247-2.247zM22.47 39.008v4.494h-.75v-4.494h-1.497v4.494h-7.49v-2.247h-1.498v2.247H8.988V37.51H29.96v3.745h1.497V37.51h4.495v5.992H23.968v-4.494H22.47zM5.992 37.51H7.49v5.992H5.992V37.51zm2.996-1.498V30.02h1.498v5.992H8.988zm23.968 0V30.02h1.497v5.992h-1.498zm4.493 1.498h1.498v5.992H37.45V37.51zm1.498-6.74v4.493a.749.749 0 0 1-.749.75h-2.246V30.02h2.246a.75.75 0 0 1 .75.75zm-17.226-.75v1.498h1.498V30.02h5.243v3.745h1.498V30.02h1.497v5.992h-14.23v-2.247h-1.498v2.247h-3.745V30.02h9.737zM4.494 35.263V30.77a.75.75 0 0 1 .749-.749H7.49v5.992H5.243a.75.75 0 0 1-.75-.749zm-2.996 7.49V38.26a.75.75 0 0 1 .749-.749h2.247v5.992H2.247a.75.75 0 0 1-.749-.749zm41.943 0a.749.749 0 0 1-.749.75h-2.247V37.51h2.247a.75.75 0 0 1 .75.75v4.493z" fill="#4054B2"/><path d="M1.498 26.275h2.247v-1.498H1.498V13.543H7.49v13.481h1.498V23.28h3.745v-1.497H8.988V8.3h7.49V2.308A2.247 2.247 0 0 0 14.23.06H9.737A2.247 2.247 0 0 0 7.49 2.308v.887a2.22 2.22 0 0 0-.75-.138H2.248A2.247 2.247 0 0 0 0 5.304v29.21h1.498v-8.239zm5.992-14.23H1.498v-1.498H7.49v1.498zm1.498-5.243V5.304h5.992v1.498H8.988zm.749-5.243h4.494a.75.75 0 0 1 .749.749v1.498H8.988V2.308a.75.75 0 0 1 .749-.75zm-7.49 2.996h4.494c.414 0 .749.335.749.749v3.745H1.498V5.304a.75.75 0 0 1 .749-.75z" fill="#4054B2"/><path d="M9.993 12.045a.75.75 0 0 0 .445.684l5.29 2.359v8.94c0 .274.15.527.39.658l.07.037a21.796 21.796 0 0 0 21.537.008l.083-.045a.75.75 0 0 0 .39-.657v-8.941l2.996-1.336v9.345l-2.308 2.309 3.057 5.219L45 25.405l-2.308-2.308V13.084l.797-.355a.75.75 0 0 0 0-1.368L27.27 4.128a.748.748 0 0 0-.61 0l-16.221 7.233a.75.75 0 0 0-.445.684zm31.95 15.616l-1.18-2.014 1.18-1.18 1.18 1.18-1.18 2.014zM36.7 23.588a20.308 20.308 0 0 1-19.473 0v-7.832l9.431 4.205a.749.749 0 0 0 .61 0l9.432-4.205v7.832zM26.963 5.632l14.381 6.413-14.38 6.412-14.381-6.412 14.38-6.413z" fill="#4054B2"/><path d="M14.98 26.275h1.498v1.37H14.98v-1.37z" fill="url(#paint0_linear)"/><defs><linearGradient id="paint0_linear" x1="15.729" y1="48.266" x2="15.729" y2=".498" gradientUnits="userSpaceOnUse"><stop stop-color="#006DF0"/><stop offset="1" stop-color="#00E7F0"/></linearGradient></defs></svg>