<svg width="60" height="65" fill="none" xmlns="http://www.w3.org/2000/svg"><path d="M57 23.74h-1V0H16v4.316h-4v58.271h22v2.159h26V26.977c0-1.788-1.343-3.237-3-3.237zM18 2.158h36V23.74h-2V13.581l-8.586-9.265H18V2.158zM44 8l4.586 4.95H44V8zM14 60.43V6.474h28v8.632h8v8.633H37c-1.657 0-3 1.45-3 3.237V60.43H14zm44 2.157H36v-35.61c0-.596.448-1.079 1-1.079h20c.552 0 1 .483 1 1.08v35.61z" fill="#4054B2"/><path d="M37 35.61h20v-8.633H37v8.633zm2-6.474h16v4.316H39v-4.316zm2 10.79h-2c-1.105 0-2 .967-2 2.158v2.159c0 1.191.895 2.158 2 2.158h2c1.105 0 2-.967 2-2.158v-2.159c0-1.191-.895-2.158-2-2.158zm-2 4.317v-2.159h2v2.159h-2zm9-4.317h-2c-1.105 0-2 .967-2 2.158v2.159c0 1.191.895 2.158 2 2.158h2c1.105 0 2-.967 2-2.158v-2.159c0-1.191-.895-2.158-2-2.158zm-2 4.317v-2.159h2v2.159h-2zm9-4.317h-2c-1.105 0-2 .967-2 2.158v2.159c0 1.191.895 2.158 2 2.158h2c1.105 0 2-.967 2-2.158v-2.159c0-1.191-.895-2.158-2-2.158zm-2 4.317v-2.159h2v2.159h-2zM41 47.48h-2c-1.105 0-2 .966-2 2.158v2.158c0 1.192.895 2.159 2 2.159h2c1.105 0 2-.967 2-2.159v-2.158c0-1.192-.895-2.158-2-2.158zm-2 4.316v-2.158h2v2.158h-2zm9-4.316h-2c-1.105 0-2 .966-2 2.158v2.158c0 1.192.895 2.159 2 2.159h2c1.105 0 2-.967 2-2.159v-2.158c0-1.192-.895-2.158-2-2.158zm-2 4.316v-2.158h2v2.158h-2zm9-4.316h-2c-1.105 0-2 .966-2 2.158v2.158c0 1.192.895 2.159 2 2.159h2c1.105 0 2-.967 2-2.159v-2.158c0-1.192-.895-2.158-2-2.158zm-2 4.316v-2.158h2v2.158h-2zm-12 3.238h-2c-1.105 0-2 .966-2 2.158v2.158c0 1.192.895 2.158 2 2.158h2c1.105 0 2-.966 2-2.158v-2.158c0-1.192-.895-2.158-2-2.158zm-2 4.316v-2.158h2v2.158h-2zm9-4.316h-2c-1.105 0-2 .966-2 2.158v2.158c0 1.192.895 2.158 2 2.158h2c1.105 0 2-.966 2-2.158v-2.158c0-1.192-.895-2.158-2-2.158zm-2 4.316v-2.158h2v2.158h-2zm9-4.316h-2c-1.105 0-2 .966-2 2.158v2.158c0 1.192.895 2.158 2 2.158h2c1.105 0 2-.966 2-2.158v-2.158c0-1.192-.895-2.158-2-2.158zm-2 4.316v-2.158h2v2.158h-2zM5 6.475C2.24 6.478.003 8.892 0 11.87v42.34L5 65l5-10.79V11.87c-.003-2.978-2.24-5.392-5-5.395zM4 50.27l-1.155-1.247L2 50.394V21.582h2V50.27zm-1.846 3.761l1-1.618L5 54.4l1.845-1.99 1 1.618L5 60.175l-2.846-6.143zM8 50.394l-.845-1.367L6 50.27V21.58h2v28.813zm0-30.97H2v-2.159h6v2.159zm-6-4.317V11.87c0-1.788 1.343-3.237 3-3.237s3 1.45 3 3.237v3.237H2zm16 0h2v2.159h-2v-2.159zm4 0h16v2.159H22v-2.159zm-4 4.317h2v2.158h-2v-2.158zm4 0h16v2.158H22v-2.158zm-4 4.316h2v2.158h-2V23.74zm4 0h10v2.158H22V23.74zm-4 4.316h2v2.159h-2v-2.159zm4 0h10v2.159H22v-2.159zm-4 4.317h2v2.158h-2v-2.158zm4 0h10v2.158H22v-2.158zm-4 4.317h2v2.157h-2V36.69zm4 0h10v2.157H22V36.69zm-4 4.316h2v2.158h-2v-2.158zm4 0h10v2.158H22v-2.158zm-4 4.316h2v2.158h-2v-2.158zm4 0h10v2.158H22v-2.158zm0 4.316h2v2.158h-2v-2.158zm4 0h2v2.158h-2v-2.158zm4 0h2v2.158h-2v-2.158z" fill="#4054B2"/></svg>