<svg width="45" height="45" fill="none" xmlns="http://www.w3.org/2000/svg"><path d="M33 16.5v-1.87l-9.75-7.5V6h7.5V0h-9v7.13L12 14.63v1.87H0V45h45V16.5H33zm-9.75-15h6v3h-6v-3zM6.75 38.25a1.5 1.5 0 0 1-1.5-1.5c0-1.245.97-3.663 1.496-3.75.534.087 1.504 2.505 1.504 3.75a1.5 1.5 0 0 1-1.5 1.5zM12 43.5H7.5v-3.857a3 3 0 0 0 2.25-2.893c0-1.077-.93-5.25-3-5.25s-3 4.173-3 5.25A3 3 0 0 0 6 39.643V43.5H1.5V18H12v25.5zm19.5 0h-18V15.37l9-6.923 9 6.922V43.5zm6.75-5.25a1.5 1.5 0 1 1 0-3 1.5 1.5 0 0 1 0 3zm5.25 5.25H39v-3.857a3 3 0 1 0-1.5 0V43.5H33V18h10.5v25.5z" fill="#4054B2"/><path d="M27.75 33h1.5v-1.5h-13.5V33h1.5v8.25H15v1.5h15v-1.5h-2.25V33zm-9 0h3v3.208a1.487 1.487 0 0 0 0 2.584v2.458h-3V33zm4.5 8.25v-2.458a1.487 1.487 0 0 0 0-2.584V33h3v8.25h-3zm-8.25-12h15v1.5H15v-1.5zm6-6h-4.5v4.5H21v-4.5zm-1.5 3H18v-1.5h1.5v1.5zm4.5 1.5h4.5v-4.5H24v4.5zm1.5-3H27v1.5h-1.5v-1.5zm-4.5-7.5h-4.5v4.5H21v-4.5zm-1.5 3H18v-1.5h1.5v1.5zm9-3H24v4.5h4.5v-4.5zm-1.5 3h-1.5v-1.5H27v1.5zm13.5 5.25H36V30h4.5v-4.5zm-1.5 3h-1.5V27H39v1.5zm1.5-9H36V24h4.5v-4.5zm-1.5 3h-1.5V21H39v1.5zm-30 3H4.5V30H9v-4.5zm-1.5 3H6V27h1.5v1.5zm1.5-9H4.5V24H9v-4.5zm-1.5 3H6V21h1.5v1.5zm15-7.5a2.25 2.25 0 1 0 0-4.5 2.25 2.25 0 0 0 0 4.5zm0-3a.75.75 0 1 1 0 1.5.75.75 0 0 1 0-1.5z" fill="#4054B2"/></svg>