<svg width="0" height="0" class="hidden">
  <symbol viewBox="0 0 80 80" fill="none" xmlns="http://www.w3.org/2000/svg" id="abc">
    <g clip-path="url(#clip0)">
      <path fill="#fff" d="M0 0h80v80H0z"></path>
      <path d="M25.333 50.667h-16A9.344 9.344 0 0 0 0 60v20h34.667V60a9.344 9.344 0 0 0-9.334-9.333zm-5.159 2.666l-2.84 4.267-2.842-4.267h5.682zm11.826 24h-5.333V62.667H24v14.666H10.667V62.667H8v14.666H2.667V60a6.675 6.675 0 0 1 6.666-6.667h1.954l6.046 9.067 6.047-9.067h1.953A6.675 6.675 0 0 1 32 60v17.333zM8 36v4a9.333 9.333 0 0 0 9.333 9.333A9.333 9.333 0 0 0 26.667 40V26.667a4 4 0 0 0-4-4H0V28a8.008 8.008 0 0 0 8 8zm16 4a6.667 6.667 0 0 1-13.333 0v-4H24v4zM2.667 25.333h20c.736 0 1.333.597 1.333 1.334v6.666H8A5.334 5.334 0 0 1 2.667 28v-2.667z"
        fill="#4054B2"></path>
      <path d="M77.333 40V4a4 4 0 0 0-4-4H22.667a4 4 0 0 0-4 4v16h2.666V4c0-.736.597-1.333 1.334-1.333h50.666c.737 0 1.334.597 1.334 1.333v36H29.332v2.667h48v2.666H26.667V48H80v-8h-2.667zm-24.6 29.408a5.333 5.333 0 1 0-6.8 0A6.652 6.652 0 0 0 40 76v4h18.667v-4a6.652 6.652 0 0 0-5.934-6.592zm-3.4-6.741a2.667 2.667 0 1 1 0 5.333 2.667 2.667 0 0 1 0-5.333zM56 77.333H42.667V76a4 4 0 0 1 4-4H52a4 4 0 0 1 4 4v1.333zm18.067-7.925a5.333 5.333 0 1 0-6.8 0A6.652 6.652 0 0 0 61.334 76v4H80v-4a6.652 6.652 0 0 0-5.933-6.592zm-3.4-6.741a2.667 2.667 0 1 1 0 5.333 2.667 2.667 0 0 1 0-5.333zm6.666 14.666H64V76a4 4 0 0 1 4-4h5.334a4 4 0 0 1 4 4v1.333z"
        fill="#4054B2"></path>
      <path d="M34.981 12l-4.266 15.65 2.573.7 1.548-5.683h4.995l1.55 5.684 2.572-.702L39.686 12H34.98zm.583 8l1.455-5.333h.629L39.103 20h-3.54zm17.103-8h-6v16h6a4.66 4.66 0 0 0 3.255-8 4.66 4.66 0 0 0-3.256-8zm0 13.333h-3.334v-4h3.334a2 2 0 1 1 0 4zm0-6.666h-3.334v-4h3.334a2 2 0 1 1 0 4zm14-4h2.666V12h-2.666A6.675 6.675 0 0 0 60 18.667v2.666A6.675 6.675 0 0 0 66.667 28h2.666v-2.667h-2.666a4 4 0 0 1-4-4v-2.666a4 4 0 0 1 4-4zM36 33.333h2.667V36H36v-2.667zm6.667 0h2.666V36h-2.666v-2.667zm6.666 0H52V36h-2.667v-2.667zm6.667 0h2.667V36H56v-2.667zm6.667 0h2.666V36h-2.666v-2.667z"
        fill="#4054B2"></path>
    </g>
    <defs>
      <clipPath id="clip0">
        <path fill="#fff" d="M0 0h80v80H0z"></path>
      </clipPath>
    </defs>
  </symbol>
  <symbol viewBox="0 0 45 45" fill="none" xmlns="http://www.w3.org/2000/svg" id="book">
    <path d="M42.692 36.012h-2.385c.085-.235.138-5.243.138-5.243a2.247 2.247 0 0 0-2.247-2.246H5.243a2.247 2.247 0 0 0-2.247 2.246v4.494c.003.256.049.51.138.75h-.887A2.247 2.247 0 0 0 0 38.258v4.494A2.247 2.247 0 0 0 2.247 45h40.445a2.247 2.247 0 0 0 2.247-2.247V38.26a2.247 2.247 0 0 0-2.247-2.247zM22.47 39.008v4.494h-.75v-4.494h-1.497v4.494h-7.49v-2.247h-1.498v2.247H8.988V37.51H29.96v3.745h1.497V37.51h4.495v5.992H23.968v-4.494H22.47zM5.992 37.51H7.49v5.992H5.992V37.51zm2.996-1.498V30.02h1.498v5.992H8.988zm23.968 0V30.02h1.497v5.992h-1.498zm4.493 1.498h1.498v5.992H37.45V37.51zm1.498-6.74v4.493a.749.749 0 0 1-.749.75h-2.246V30.02h2.246a.75.75 0 0 1 .75.75zm-17.226-.75v1.498h1.498V30.02h5.243v3.745h1.498V30.02h1.497v5.992h-14.23v-2.247h-1.498v2.247h-3.745V30.02h9.737zM4.494 35.263V30.77a.75.75 0 0 1 .749-.749H7.49v5.992H5.243a.75.75 0 0 1-.75-.749zm-2.996 7.49V38.26a.75.75 0 0 1 .749-.749h2.247v5.992H2.247a.75.75 0 0 1-.749-.749zm41.943 0a.749.749 0 0 1-.749.75h-2.247V37.51h2.247a.75.75 0 0 1 .75.75v4.493z"
      fill="#4054B2"></path>
    <path d="M1.498 26.275h2.247v-1.498H1.498V13.543H7.49v13.481h1.498V23.28h3.745v-1.497H8.988V8.3h7.49V2.308A2.247 2.247 0 0 0 14.23.06H9.737A2.247 2.247 0 0 0 7.49 2.308v.887a2.22 2.22 0 0 0-.75-.138H2.248A2.247 2.247 0 0 0 0 5.304v29.21h1.498v-8.239zm5.992-14.23H1.498v-1.498H7.49v1.498zm1.498-5.243V5.304h5.992v1.498H8.988zm.749-5.243h4.494a.75.75 0 0 1 .749.749v1.498H8.988V2.308a.75.75 0 0 1 .749-.75zm-7.49 2.996h4.494c.414 0 .749.335.749.749v3.745H1.498V5.304a.75.75 0 0 1 .749-.75z"
      fill="#4054B2"></path>
    <path d="M9.993 12.045a.75.75 0 0 0 .445.684l5.29 2.359v8.94c0 .274.15.527.39.658l.07.037a21.796 21.796 0 0 0 21.537.008l.083-.045a.75.75 0 0 0 .39-.657v-8.941l2.996-1.336v9.345l-2.308 2.309 3.057 5.219L45 25.405l-2.308-2.308V13.084l.797-.355a.75.75 0 0 0 0-1.368L27.27 4.128a.748.748 0 0 0-.61 0l-16.221 7.233a.75.75 0 0 0-.445.684zm31.95 15.616l-1.18-2.014 1.18-1.18 1.18 1.18-1.18 2.014zM36.7 23.588a20.308 20.308 0 0 1-19.473 0v-7.832l9.431 4.205a.749.749 0 0 0 .61 0l9.432-4.205v7.832zM26.963 5.632l14.381 6.413-14.38 6.412-14.381-6.412 14.38-6.413z"
      fill="#4054B2"></path>
    <path d="M14.98 26.275h1.498v1.37H14.98v-1.37z" fill="url(#paint0_linear)"></path>
    <defs>
      <linearGradient id="paint0_linear" x1="15.729" y1="48.266" x2="15.729" y2=".498" gradientUnits="userSpaceOnUse">
        <stop stop-color="#006DF0"></stop>
        <stop offset="1" stop-color="#00E7F0"></stop>
      </linearGradient>
    </defs>
  </symbol>
  <symbol viewBox="0 0 60 65" fill="none" xmlns="http://www.w3.org/2000/svg" id="book_circle">
    <path d="M55 6.475c-2.76.003-4.997 2.417-5 5.395v42.34L55 65l5-10.79V11.87c-.003-2.978-2.24-5.392-5-5.395zM54 50.27l-1.155-1.248-.845 1.37V21.583h2V50.27zm-1.846 3.761l1-1.619L55 54.401l1.845-1.99 1 1.619L55 60.175l-2.846-6.143zM58 50.394l-.845-1.367L56 50.27V21.582h2v28.812zm0-30.97h-6v-2.159h6v2.159zm-6-4.317V11.87c0-1.788 1.343-3.237 3-3.237s3 1.45 3 3.237v3.237h-6zM40 0H0v58.27h6v6.476h40V6.475h-6V0zM2 56.113V2.158h36v4.317H6v49.638H2zm42 6.474H8V8.633h36v53.954z"
      fill="#4054B2"></path>
    <path d="M20 12.95h-8v8.632h8v-8.633zm-2 6.474h-4v-4.317h4v4.317zm2 5.396h-8v8.632h8v-8.633zm-2 6.474h-4v-4.317h4v4.317zm2 5.395h-8v8.633h8v-8.633zm-2 6.474h-4v-4.316h4v4.316zm2 6.475h-8v8.633h8v-8.633zm-2 6.475h-4v-4.317h4v4.317zm6-42.085h16v2.158H24v-2.158zm0 4.317h16v2.158H24v-2.159zm0 7.553h16v2.158H24v-2.158zm0 4.316h16v2.159H24v-2.159zm0 7.554h16v2.158H24v-2.158zm0 4.316h16v2.159H24v-2.159zm0 8.633h16v2.158H24v-2.158zm0 4.317h4v2.158h-4v-2.158zm10 0h2v2.158h-2v-2.158zm-4 0h2v2.158h-2v-2.158zm8 0h2v2.158h-2v-2.158z"
      fill="#4054B2"></path>
  </symbol>
  <symbol viewBox="0 0 60 65" fill="none" xmlns="http://www.w3.org/2000/svg" id="calculator">
    <path d="M57 23.74h-1V0H16v4.316h-4v58.271h22v2.159h26V26.977c0-1.788-1.343-3.237-3-3.237zM18 2.158h36V23.74h-2V13.581l-8.586-9.265H18V2.158zM44 8l4.586 4.95H44V8zM14 60.43V6.474h28v8.632h8v8.633H37c-1.657 0-3 1.45-3 3.237V60.43H14zm44 2.157H36v-35.61c0-.596.448-1.079 1-1.079h20c.552 0 1 .483 1 1.08v35.61z"
      fill="#4054B2"></path>
    <path d="M37 35.61h20v-8.633H37v8.633zm2-6.474h16v4.316H39v-4.316zm2 10.79h-2c-1.105 0-2 .967-2 2.158v2.159c0 1.191.895 2.158 2 2.158h2c1.105 0 2-.967 2-2.158v-2.159c0-1.191-.895-2.158-2-2.158zm-2 4.317v-2.159h2v2.159h-2zm9-4.317h-2c-1.105 0-2 .967-2 2.158v2.159c0 1.191.895 2.158 2 2.158h2c1.105 0 2-.967 2-2.158v-2.159c0-1.191-.895-2.158-2-2.158zm-2 4.317v-2.159h2v2.159h-2zm9-4.317h-2c-1.105 0-2 .967-2 2.158v2.159c0 1.191.895 2.158 2 2.158h2c1.105 0 2-.967 2-2.158v-2.159c0-1.191-.895-2.158-2-2.158zm-2 4.317v-2.159h2v2.159h-2zM41 47.48h-2c-1.105 0-2 .966-2 2.158v2.158c0 1.192.895 2.159 2 2.159h2c1.105 0 2-.967 2-2.159v-2.158c0-1.192-.895-2.158-2-2.158zm-2 4.316v-2.158h2v2.158h-2zm9-4.316h-2c-1.105 0-2 .966-2 2.158v2.158c0 1.192.895 2.159 2 2.159h2c1.105 0 2-.967 2-2.159v-2.158c0-1.192-.895-2.158-2-2.158zm-2 4.316v-2.158h2v2.158h-2zm9-4.316h-2c-1.105 0-2 .966-2 2.158v2.158c0 1.192.895 2.159 2 2.159h2c1.105 0 2-.967 2-2.159v-2.158c0-1.192-.895-2.158-2-2.158zm-2 4.316v-2.158h2v2.158h-2zm-12 3.238h-2c-1.105 0-2 .966-2 2.158v2.158c0 1.192.895 2.158 2 2.158h2c1.105 0 2-.966 2-2.158v-2.158c0-1.192-.895-2.158-2-2.158zm-2 4.316v-2.158h2v2.158h-2zm9-4.316h-2c-1.105 0-2 .966-2 2.158v2.158c0 1.192.895 2.158 2 2.158h2c1.105 0 2-.966 2-2.158v-2.158c0-1.192-.895-2.158-2-2.158zm-2 4.316v-2.158h2v2.158h-2zm9-4.316h-2c-1.105 0-2 .966-2 2.158v2.158c0 1.192.895 2.158 2 2.158h2c1.105 0 2-.966 2-2.158v-2.158c0-1.192-.895-2.158-2-2.158zm-2 4.316v-2.158h2v2.158h-2zM5 6.475C2.24 6.478.003 8.892 0 11.87v42.34L5 65l5-10.79V11.87c-.003-2.978-2.24-5.392-5-5.395zM4 50.27l-1.155-1.247L2 50.394V21.582h2V50.27zm-1.846 3.761l1-1.618L5 54.4l1.845-1.99 1 1.618L5 60.175l-2.846-6.143zM8 50.394l-.845-1.367L6 50.27V21.58h2v28.813zm0-30.97H2v-2.159h6v2.159zm-6-4.317V11.87c0-1.788 1.343-3.237 3-3.237s3 1.45 3 3.237v3.237H2zm16 0h2v2.159h-2v-2.159zm4 0h16v2.159H22v-2.159zm-4 4.317h2v2.158h-2v-2.158zm4 0h16v2.158H22v-2.158zm-4 4.316h2v2.158h-2V23.74zm4 0h10v2.158H22V23.74zm-4 4.316h2v2.159h-2v-2.159zm4 0h10v2.159H22v-2.159zm-4 4.317h2v2.158h-2v-2.158zm4 0h10v2.158H22v-2.158zm-4 4.317h2v2.157h-2V36.69zm4 0h10v2.157H22V36.69zm-4 4.316h2v2.158h-2v-2.158zm4 0h10v2.158H22v-2.158zm-4 4.316h2v2.158h-2v-2.158zm4 0h10v2.158H22v-2.158zm0 4.316h2v2.158h-2v-2.158zm4 0h2v2.158h-2v-2.158zm4 0h2v2.158h-2v-2.158z"
      fill="#4054B2"></path>
  </symbol>
  <symbol viewBox="0 0 61 65" fill="none" xmlns="http://www.w3.org/2000/svg" id="date">
    <path d="M54.9 5.417V3.25C54.9 1.455 53.534 0 51.85 0h-2.033c-1.685 0-3.05 1.455-3.05 3.25v2.167h-5.084V3.25c0-1.795-1.365-3.25-3.05-3.25H36.6c-1.684 0-3.05 1.455-3.05 3.25v2.167h-6.1V3.25C27.45 1.455 26.084 0 24.4 0h-2.033c-1.685 0-3.05 1.455-3.05 3.25v2.167h-5.084V3.25c0-1.795-1.365-3.25-3.05-3.25H9.15C7.466 0 6.1 1.455 6.1 3.25v2.167H0V65h61V5.417h-6.1zM48.8 3.25c0-.598.455-1.083 1.017-1.083h2.033c.561 0 1.017.485 1.017 1.083v6.5c0 .598-.456 1.083-1.017 1.083h-2.033c-.562 0-1.017-.485-1.017-1.083v-6.5zm-13.217 0c0-.598.456-1.083 1.017-1.083h2.033c.562 0 1.017.485 1.017 1.083v6.5c0 .598-.455 1.083-1.017 1.083H36.6c-.562 0-1.017-.485-1.017-1.083v-6.5zm-14.233 0c0-.598.455-1.083 1.017-1.083H24.4c.562 0 1.017.485 1.017 1.083v6.5c0 .598-.456 1.083-1.017 1.083h-2.033c-.562 0-1.017-.485-1.017-1.083v-6.5zm-13.217 0c0-.598.456-1.083 1.017-1.083h2.033c.562 0 1.017.485 1.017 1.083v6.5c0 .598-.455 1.083-1.017 1.083H9.15c-.561 0-1.017-.485-1.017-1.083v-6.5zm50.834 59.583H2.033V19.5h56.934v43.333zm-56.934-45.5v-9.75H6.1V9.75C6.1 11.545 7.466 13 9.15 13h2.033c1.685 0 3.05-1.455 3.05-3.25V7.583h5.084V9.75c0 1.795 1.365 3.25 3.05 3.25H24.4c1.684 0 3.05-1.455 3.05-3.25V7.583h6.1V9.75c0 1.795 1.366 3.25 3.05 3.25h2.033c1.685 0 3.05-1.455 3.05-3.25V7.583h5.084V9.75c0 1.795 1.365 3.25 3.05 3.25h2.033c1.684 0 3.05-1.455 3.05-3.25V7.583h4.067v9.75H2.033z"
      fill="#4054B2"></path>
  </symbol>
  <symbol viewBox="0 0 80 85" fill="none" xmlns="http://www.w3.org/2000/svg" id="education">
    <g clip-path="url(#clip0)" fill="#4054B2">
      <path d="M70.628 52.48c5.155 0 9.334-4.409 9.334-9.849s-4.18-9.85-9.334-9.85h-56.4l-14 9.85 14 9.85h56.4zm-1.333-16.884h1.333c3.682 0 6.667 3.15 6.667 7.035 0 3.886-2.985 7.036-6.667 7.036h-1.333V35.595zm-5.333 0h2.666v14.07h-2.666v-14.07zm-46.116 14.07l2.667-2.814h40.782v2.815H17.846zm2.515-8.442h40.934v2.814H20.361l-2-1.407 2-1.407zm40.934-2.814H20.513l-2.667-2.814h43.449v2.814zM14.459 36l3.41 3.599-4.308 3.032 4.312 3.032-3.41 3.6-9.435-6.632L14.459 36z"></path>
      <path d="M39.11 7.472c-14.835.41-27.632 11.11-31.402 26.259l2.58.703a32.716 32.716 0 0 1 4.777-10.629 32.322 32.322 0 0 0 5.705 3.446 51.082 51.082 0 0 0-.994 3.929l2.604.6c.25-1.197.546-2.34.865-3.452a46.17 46.17 0 0 0 16.716 3.046 46.172 46.172 0 0 0 16.717-3.04c.317 1.105.611 2.241.86 3.427l2.603-.602a50.449 50.449 0 0 0-.987-3.9 32.43 32.43 0 0 0 5.712-3.454 32.859 32.859 0 0 1 4.045 8.146l2.518-.929C66.834 17.193 54.604 7.812 40.721 7.467l-1.61.005zm-.482 2.88V28.51a43.179 43.179 0 0 1-14.534-2.833c3.173-8.85 8.654-14.615 14.534-15.325zm2.667 0c5.921.752 11.374 6.504 14.533 15.317a43.17 43.17 0 0 1-14.533 2.841V10.352zm-12.192 1.996c-3.344 3.421-5.899 7.608-7.467 12.235a29.663 29.663 0 0 1-4.945-3.01c3.336-4.125 7.605-7.295 12.412-9.218v-.007zm34.133 9.226a29.724 29.724 0 0 1-4.946 3.01c-1.57-4.634-4.131-8.824-7.486-12.242 4.816 1.924 9.092 5.103 12.432 9.239v-.007zM40.812 77.79c13.849-.384 26.032-9.759 30.616-23.556l-2.519-.929a32.847 32.847 0 0 1-4.046 8.152 32.315 32.315 0 0 0-5.715-3.453 49.98 49.98 0 0 0 .99-3.904l-2.605-.603a47.764 47.764 0 0 1-.86 3.43 46.162 46.162 0 0 0-16.711-3.039 46.169 46.169 0 0 0-16.717 3.04 48.088 48.088 0 0 1-.866-3.46l-2.604.601c.282 1.361.625 2.674.996 3.94a32.316 32.316 0 0 0-5.706 3.446 32.724 32.724 0 0 1-4.8-10.726l-2.583.703c3.746 15.232 16.612 25.993 31.52 26.363l1.61-.005zm.483-2.88V56.76a43.182 43.182 0 0 1 14.533 2.834C52.656 68.436 47.174 74.2 41.295 74.91zm-2.667 0c-5.923-.751-11.375-6.504-14.534-15.317a43.173 43.173 0 0 1 14.534-2.841V74.91zm12.192-1.996c3.343-3.421 5.898-7.608 7.466-12.235a29.75 29.75 0 0 1 4.946 3.01c-3.337 4.125-7.606 7.295-12.412 9.218v.007zm-34.133-9.226a29.747 29.747 0 0 1 4.945-3.009c1.57 4.634 4.132 8.823 7.486 12.242-4.815-1.926-9.091-5.103-12.431-9.24v.007zm59.214-10.354l2.568.76c.124-.47.24-.938.351-1.408l-2.592-.667c-.101.44-.21.884-.327 1.315zM61.208 75.033l1.52 2.312a41.47 41.47 0 0 0 2.212-1.74l-1.667-2.197a39.055 39.055 0 0 1-2.065 1.625zm-9.171 4.887l.858 2.673c.865-.312 1.733-.66 2.58-1.037l-1.035-2.593c-.785.345-1.596.675-2.403.957zm22.127-21.47l2.443 1.126c.369-.885.713-1.797 1.021-2.709l-2.51-.949c-.29.856-.61 1.706-.954 2.532zM47.061 81.319l.505 2.763a38.21 38.21 0 0 0 2.692-.65l-.684-2.72c-.825.232-1.67.436-2.513.607zm9.722-3.509l1.2 2.512a37.986 37.986 0 0 0 2.418-1.407l-1.36-2.41c-.738.46-1.497.903-2.258 1.304zm8.447-6.174l1.804 2.07A41.737 41.737 0 0 0 69 71.66l-1.935-1.936c-.588.656-1.206 1.3-1.836 1.91zm6.542-8.369l2.266 1.474c.48-.823.94-1.674 1.366-2.532L73.041 60.9a36.7 36.7 0 0 1-1.269 2.366zm-2.999 4.421l2.058 1.791a42.184 42.184 0 0 0 1.682-2.31l-2.17-1.637a39.316 39.316 0 0 1-1.57 2.156zM20.812 79.7a36.4 36.4 0 0 0 2.47 1.309l1.111-2.557a36.76 36.76 0 0 1-2.303-1.221l-1.278 2.47zm10.307 4.11c.892.212 1.805.393 2.712.54l.4-2.78a37.2 37.2 0 0 1-2.534-.506l-.578 2.745zM16.16 76.562a41.075 41.075 0 0 0 2.274 1.654l1.438-2.377a35.884 35.884 0 0 1-2.123-1.548l-1.589 2.271zm-4.199-3.784c.656.68 1.342 1.34 2.036 1.97l1.733-2.14a41.832 41.832 0 0 1-1.9-1.829l-1.869 2zm24.613 11.926c.911.08 1.838.128 2.754.14l.042-2.814a32.554 32.554 0 0 1-2.575-.14l-.221 2.814zm5.376-2.729l.14 2.815c.914-.05 1.841-.141 2.75-.252l-.322-2.793a36.93 36.93 0 0 1-2.569.23zm-16.122.16c.859.341 1.733.655 2.619.934l.765-2.697a36.013 36.013 0 0 1-2.441-.87l-.943 2.633zM7.544 62.19L5.23 63.589c.457.844.944 1.671 1.455 2.476l2.21-1.566a44.926 44.926 0 0 1-1.35-2.31zM3.72 52.13l-2.588.676c.222.944.476 1.889.756 2.802l2.533-.865a44.653 44.653 0 0 1-.7-2.614zm6.688 14.577l-2.112 1.72a41.706 41.706 0 0 0 1.763 2.242l1.992-1.865a41.018 41.018 0 0 1-1.643-2.097zm-5.113-9.411L2.82 58.347c.347.91.723 1.806 1.116 2.664l2.4-1.229a49.203 49.203 0 0 1-1.041-2.486zm-2.314-9.222L.34 48.46c.062.48.133.96.21 1.436l2.628-.48a44.822 44.822 0 0 1-.197-1.342zm-.008-10.823L.33 36.872c-.06.478-.114.96-.162 1.444l2.655.28c.042-.449.093-.897.151-1.345zM48.739 1.438A38.576 38.576 0 0 0 46.029.9l-.4 2.782c.842.14 1.694.304 2.534.502l.576-2.746zm5.288 1.665a37.853 37.853 0 0 0-2.616-.93l-.763 2.697c.825.26 1.646.551 2.439.866l.94-2.633zM72.332 22.99l2.31-1.407c-.46-.844-.949-1.67-1.458-2.468l-2.213 1.565c.474.75.933 1.526 1.361 2.31zm2.255 4.879l2.47-1.056a44.61 44.61 0 0 0-1.12-2.657l-2.401 1.232c.379.814.73 1.648 1.05 2.48zm-5.125-9.389l2.106-1.723a41.927 41.927 0 0 0-1.767-2.239l-1.987 1.876a40.654 40.654 0 0 1 1.648 2.087zm-1.566-6.063a41.727 41.727 0 0 0-2.037-1.96L64.126 12.6a40.44 40.44 0 0 1 1.905 1.829l1.865-2.013zm-4.201-3.769A40.232 40.232 0 0 0 61.42 7l-1.43 2.374a36.97 36.97 0 0 1 2.12 1.538l1.585-2.264zm-4.651-3.127c-.8-.462-1.637-.9-2.47-1.301l-1.107 2.56c.776.375 1.55.783 2.3 1.213l1.277-2.472zM43.288.558a39.951 39.951 0 0 0-2.753-.14l-.04 2.814a36.09 36.09 0 0 1 2.571.129l.222-2.803zM14.676 13.644l-1.804-2.073a44.563 44.563 0 0 0-1.965 2.045l1.937 1.934a36.238 36.238 0 0 1 1.832-1.906zm-3.536 3.941l-2.057-1.788A42.482 42.482 0 0 0 7.4 18.105l2.17 1.638a44.193 44.193 0 0 1 1.569-2.158zm-2.996 4.422l-2.271-1.468c-.48.822-.933 1.673-1.365 2.533L6.87 24.38c.397-.809.825-1.604 1.274-2.372zm-4.124 9.93l-2.568-.763a45.216 45.216 0 0 0-.653 2.829l2.61.574c.175-.892.38-1.78.611-2.64zm1.735-5.119l-2.443-1.126c-.37.893-.713 1.803-1.02 2.708l2.51.948c.287-.847.608-1.697.953-2.53zM23.11 7.463l-1.2-2.509c-.818.438-1.63.91-2.415 1.407l1.368 2.416a36.523 36.523 0 0 1 2.248-1.314zm9.704-3.509L32.31 1.19a38.24 38.24 0 0 0-2.69.652l.689 2.72a34.24 34.24 0 0 1 2.506-.608zm-4.969 1.398l-.864-2.662c-.861.31-1.733.66-2.575 1.038l1.038 2.6c.79-.36 1.6-.686 2.401-.976zm-9.153 4.894l-1.519-2.312a40.19 40.19 0 0 0-2.211 1.741l1.666 2.197a36.145 36.145 0 0 1 2.064-1.626zm19.23-6.956L37.78.478a40.46 40.46 0 0 0-2.746.256l.326 2.793a36.862 36.862 0 0 1 2.563-.235zm37.934 28.474l2.565-.773c-.127-.469-.26-.935-.4-1.397l-2.533.875c.13.428.252.86.368 1.295z"></path>
    </g>
    <defs>
      <clipPath id="clip0">
        <path fill="#fff" d="M0 .417h80v84.427H0z"></path>
      </clipPath>
    </defs>
  </symbol>
  <symbol viewBox="0 0 20 14" fill="none" xmlns="http://www.w3.org/2000/svg" id="Group">
    <path d="M.667.667h18.666v2.666H.667V.667zM.667 6h18.666v2.667H.667V6zm0 5.334h18.666V14H.667v-2.666z" fill="#4054B2"></path>
  </symbol>
  <symbol viewBox="0 0 45 45" fill="none" xmlns="http://www.w3.org/2000/svg" id="hand">
    <path d="M42.621 17.712a3.063 3.063 0 0 0-3.547 2.287l-1.702 6.377a3.095 3.095 0 0 0-3.493.123c-.075.06-6.768 4.33-6.768 4.33a8.264 8.264 0 0 0-3.86 7.022v6.395c0 .416.336.754.75.754a.753.753 0 0 0 .751-.754V37.85a6.763 6.763 0 0 1 3.158-5.746s6.79-4.332 6.815-4.353a1.534 1.534 0 0 1 2.051.067c.57.573.588 1.496.04 2.09l-4.99 3.525a.757.757 0 0 0-.183 1.051.748.748 0 0 0 1.046.184l5.048-3.566a.775.775 0 0 0 .099-.084 3.027 3.027 0 0 0 .69-3.157l1.996-7.472a1.586 1.586 0 0 1 1.785-1.202 1.513 1.513 0 0 1 1.142 1.863L40.747 31.2a2.275 2.275 0 0 1-.583 1.015l-5.617 5.646a5.261 5.261 0 0 0-1.539 3.734v2.65c0 .417.336.755.75.755a.753.753 0 0 0 .751-.754v-2.651a3.76 3.76 0 0 1 1.1-2.668l5.617-5.645c.466-.468.8-1.051.971-1.691l2.702-10.147a3.027 3.027 0 0 0-2.278-3.732zM17.89 30.828s-6.638-4.224-6.686-4.265a3.088 3.088 0 0 0-3.574-.187L5.927 20a3.06 3.06 0 0 0-3.546-2.287 3.009 3.009 0 0 0-1.937 1.373 3.036 3.036 0 0 0-.343 2.357l2.701 10.149c.17.64.506 1.222.972 1.691l5.617 5.645a3.758 3.758 0 0 1 1.101 2.667v2.652c0 .416.336.754.75.754a.753.753 0 0 0 .751-.754v-2.652a5.259 5.259 0 0 0-1.539-3.733l-5.617-5.646a2.272 2.272 0 0 1-.583-1.015L1.552 21.05a1.513 1.513 0 0 1 1.143-1.861 1.577 1.577 0 0 1 1.784 1.2l1.996 7.473a3.03 3.03 0 0 0 .69 3.157c.032.03.065.059.1.084l5.048 3.563a.748.748 0 0 0 1.045-.184.757.757 0 0 0-.182-1.05l-4.99-3.526a1.514 1.514 0 0 1 .039-2.09 1.537 1.537 0 0 1 2.012-.101c.038.03 6.855 4.387 6.855 4.387a6.761 6.761 0 0 1 3.157 5.749v6.395c0 .416.336.754.75.754a.753.753 0 0 0 .751-.754V37.85a8.263 8.263 0 0 0-3.86-7.023z"
      fill="#4054B2"></path>
    <path d="M34.849 24.552a.755.755 0 0 0 .41-.673V11.303l6.763-2.558a.754.754 0 0 0 0-1.412L22.766.049a.747.747 0 0 0-.53 0L2.98 7.333a.754.754 0 0 0 0 1.412l3.785 1.433a.677.677 0 0 0-.025.124v7.543c0 .416.336.754.75.754.415 0 .75-.338.75-.754v-7.11l1.502.568v12.576c0 .285.159.545.411.673l.6.302a26.332 26.332 0 0 0 23.506 0l.59-.302zM22.5 1.56l17.126 6.48-17.125 6.479-17.126-6.48L22.501 1.56zm11.08 21.95a24.838 24.838 0 0 1-22.156 0l-.182-.094V11.871l10.993 4.158a.75.75 0 0 0 .53 0l10.993-4.158v11.545l-.177.095z"
      fill="#4054B2"></path>
  </symbol>
  <symbol viewBox="0 0 45 45" fill="none" xmlns="http://www.w3.org/2000/svg" id="house">
    <path d="M33 16.5v-1.87l-9.75-7.5V6h7.5V0h-9v7.13L12 14.63v1.87H0V45h45V16.5H33zm-9.75-15h6v3h-6v-3zM6.75 38.25a1.5 1.5 0 0 1-1.5-1.5c0-1.245.97-3.663 1.496-3.75.534.087 1.504 2.505 1.504 3.75a1.5 1.5 0 0 1-1.5 1.5zM12 43.5H7.5v-3.857a3 3 0 0 0 2.25-2.893c0-1.077-.93-5.25-3-5.25s-3 4.173-3 5.25A3 3 0 0 0 6 39.643V43.5H1.5V18H12v25.5zm19.5 0h-18V15.37l9-6.923 9 6.922V43.5zm6.75-5.25a1.5 1.5 0 1 1 0-3 1.5 1.5 0 0 1 0 3zm5.25 5.25H39v-3.857a3 3 0 1 0-1.5 0V43.5H33V18h10.5v25.5z"
      fill="#4054B2"></path>
    <path d="M27.75 33h1.5v-1.5h-13.5V33h1.5v8.25H15v1.5h15v-1.5h-2.25V33zm-9 0h3v3.208a1.487 1.487 0 0 0 0 2.584v2.458h-3V33zm4.5 8.25v-2.458a1.487 1.487 0 0 0 0-2.584V33h3v8.25h-3zm-8.25-12h15v1.5H15v-1.5zm6-6h-4.5v4.5H21v-4.5zm-1.5 3H18v-1.5h1.5v1.5zm4.5 1.5h4.5v-4.5H24v4.5zm1.5-3H27v1.5h-1.5v-1.5zm-4.5-7.5h-4.5v4.5H21v-4.5zm-1.5 3H18v-1.5h1.5v1.5zm9-3H24v4.5h4.5v-4.5zm-1.5 3h-1.5v-1.5H27v1.5zm13.5 5.25H36V30h4.5v-4.5zm-1.5 3h-1.5V27H39v1.5zm1.5-9H36V24h4.5v-4.5zm-1.5 3h-1.5V21H39v1.5zm-30 3H4.5V30H9v-4.5zm-1.5 3H6V27h1.5v1.5zm1.5-9H4.5V24H9v-4.5zm-1.5 3H6V21h1.5v1.5zm15-7.5a2.25 2.25 0 1 0 0-4.5 2.25 2.25 0 0 0 0 4.5zm0-3a.75.75 0 1 1 0 1.5.75.75 0 0 1 0-1.5z"
      fill="#4054B2"></path>
  </symbol>
  <symbol viewBox="0 0 50 50" fill="none" xmlns="http://www.w3.org/2000/svg" id="logo">
    <circle cx="25" cy="25" r="24.5" fill="#4054B2" stroke="#fff"></circle>
    <path d="M40.334 21.608c-1.226-.22-2.42.501-2.719 1.64l-1.304 4.573a2.507 2.507 0 0 0-2.677.088c-.057.043-5.186 3.105-5.186 3.105-1.845 1.085-2.964 2.989-2.958 5.036v4.586c0 .298.258.54.575.54.318 0 .576-.242.576-.54V36.05c-.005-1.675.91-3.233 2.42-4.12 0 0 5.203-3.107 5.222-3.123a1.236 1.236 0 0 1 1.572.049c.437.41.45 1.073.03 1.499l-3.823 2.527a.521.521 0 0 0-.14.754.599.599 0 0 0 .8.132l3.869-2.557a.58.58 0 0 0 .076-.06c.627-.595.834-1.477.53-2.265l1.528-5.358c.148-.578.743-.953 1.368-.862.53.107.91.546.913 1.055 0 .095-.012.19-.038.282l-2.07 7.277a1.61 1.61 0 0 1-.447.729l-4.305 4.048a3.653 3.653 0 0 0-1.179 2.677v1.901c0 .3.258.541.575.541.318 0 .575-.242.575-.54v-1.902a2.611 2.611 0 0 1 .843-1.912l4.305-4.049c.356-.336.613-.754.744-1.212l2.07-7.277c.053-.183.079-.373.078-.563-.006-1.02-.764-1.898-1.823-2.113zm-18.956 9.406s-5.385-3.03-5.424-3.058c-.837-.586-2-.64-2.9-.135l-1.382-4.573c-.315-1.139-1.58-1.86-2.877-1.64-.654.124-1.221.48-1.571.985a1.961 1.961 0 0 0-.279 1.69l2.192 7.278c.138.459.41.877.788 1.213l4.557 4.048c.574.506.896 1.194.894 1.912v1.901c0 .3.273.541.61.541.335 0 .608-.242.608-.54v-1.902c.003-1.005-.447-1.969-1.249-2.677l-4.557-4.048a1.596 1.596 0 0 1-.473-.729l-2.193-7.279a.955.955 0 0 1-.04-.28c.005-.51.407-.948.968-1.054.662-.095 1.294.282 1.448.862l1.619 5.358c-.323.787-.104 1.67.56 2.264a.624.624 0 0 0 .08.06l4.096 2.555c.275.172.655.113.848-.132.194-.244.128-.581-.148-.754l-4.049-2.527a.997.997 0 0 1 .033-1.5 1.372 1.372 0 0 1 1.632-.072c.031.023 5.562 3.147 5.562 3.147 1.599.888 2.568 2.447 2.561 4.122v4.586c0 .298.273.54.61.54.336 0 .608-.242.608-.54V36.05c.007-2.047-1.177-3.951-3.132-5.036z"
      fill="#fff"></path>
    <path d="M34.19 26.252a.532.532 0 0 0 .323-.477v-8.928l5.302-1.816a.54.54 0 0 0 .38-.501.54.54 0 0 0-.38-.501l-15.098-5.17a.642.642 0 0 0-.415 0l-15.097 5.17a.54.54 0 0 0-.382.501.54.54 0 0 0 .382.501l2.967 1.018a.436.436 0 0 0-.02.087v5.355c0 .296.264.535.589.535.325 0 .588-.24.588-.535v-5.047l1.177.403v8.928c0 .201.125.386.323.477l.47.214c5.806 2.62 12.623 2.62 18.429 0l.462-.214zm-9.68-16.32l13.426 4.598-13.427 4.6-13.426-4.6 13.426-4.599zm8.687 15.58c-5.473 2.469-11.899 2.469-17.372 0l-.142-.066V17.25l8.619 2.952a.645.645 0 0 0 .415 0l8.619-2.952v8.196l-.139.067z"
      fill="#fff"></path>
  </symbol>
  <symbol viewBox="0 0 50 47" fill="none" xmlns="http://www.w3.org/2000/svg" id="pen_hand">
    <path d="M36.573 18.37v3.358h-2.34a2.5 2.5 0 0 1-1.397-.42l-.995-.663L45.322 7.164a4.196 4.196 0 1 0-5.934-5.935L20.507 20.11v-.062h-4.914a7.589 7.589 0 0 0-6.042 3.021l-6.31 8.413a4.216 4.216 0 0 0 .39 5.485l.009.008-.672.671L0 46.552l8.905-2.968 1.785-1.786a2.512 2.512 0 0 0 2.386 1.749h12.036a4.168 4.168 0 0 0 2.967-1.23l1.391-1.389a2.53 2.53 0 0 1 1.78-.738h5.323v3.357H50V18.37H36.573zM14.699 35.418a5.898 5.898 0 0 0-3.88 3.878l-2.37 2.371-1.188-1.188L37.608 10.13l1.185 1.184-24.094 24.103zm5.93-3.558v2.457a.84.84 0 0 1-.84.839h-2.456l3.295-3.296zM40.575 2.416a2.518 2.518 0 1 1 3.56 3.56l-1.78 1.78-3.56-3.56 1.78-1.78zm.593 6.528l-1.186 1.186-3.56-3.56 1.185-1.187 3.561 3.56zm-4.747 0L6.074 39.29l-1.188-1.188L35.238 7.76l1.184 1.185zM4.818 35.78a2.531 2.531 0 0 1-.234-3.291l6.31-8.412a5.905 5.905 0 0 1 4.7-2.35h3.298L4.826 35.789l-.008-.008zm-.75 3.877l2.826 2.828-4.24 1.412 1.414-4.24zm27.182-1.146a4.17 4.17 0 0 0-2.967 1.23l-1.391 1.389a2.532 2.532 0 0 1-1.78.737H13.076a.84.84 0 0 1-.84-.839 4.201 4.201 0 0 1 4.196-4.196h3.357a2.518 2.518 0 0 0 2.518-2.517V30.18l8.324-8.328 1.273.85c.69.46 1.5.705 2.328.704h2.34v15.106H31.25zm17.072 3.356h-10.07V20.05h10.07v21.82z"
      fill="#4054B2"></path>
  </symbol>
</svg>